HIERARCHY
ROOT Bip001_Pelvis
{
  OFFSET 7.937 94.8971 -8.5489
  CHANNELS 6 Xposition Yposition Zposition Zrotation Xrotation Yrotation
  JOINT Bip001_Spine
  {
    OFFSET 1.44608e-005 10.4157 -0.0118244
    CHANNELS 3 Zrotation Xrotation Yrotation
    JOINT Bip001_L_Thigh
    {
      OFFSET 11.2582 -10.4157 0.0118432
      CHANNELS 3 Zrotation Xrotation Yrotation
      JOINT Bip001_L_Calf
      {
        OFFSET -0.720717 -44.8687 0.366937
        CHANNELS 3 Zrotation Xrotation Yrotation
        JOINT Bip001_L_Foot
        {
          OFFSET -0.664439 -41.3745 -3.62995
          CHANNELS 3 Zrotation Xrotation Yrotation
          JOINT Bip001_L_Toe0
          {
            OFFSET 0.0541047 -10.4146 13.4033
            CHANNELS 3 Zrotation Xrotation Yrotation
            End Site
            {
              OFFSET -1.04503e-005 0 7.70137
            }
          }
        }
      }
    }
    JOINT Bip001_R_Thigh
    {
      OFFSET -11.2582 -10.4156 0.0118122
      CHANNELS 3 Zrotation Xrotation Yrotation
      JOINT Bip001_R_Calf
      {
        OFFSET 0.72059 -44.8687 0.36676
        CHANNELS 3 Zrotation Xrotation Yrotation
        JOINT Bip001_R_Foot
        {
          OFFSET 0.664321 -41.3745 -3.62979
          CHANNELS 3 Zrotation Xrotation Yrotation
          JOINT Bip001_R_Toe0
          {
            OFFSET -0.05417 -10.4146 13.4033
            CHANNELS 3 Zrotation Xrotation Yrotation
            End Site
            {
              OFFSET -1.04873e-005 0 7.70137
            }
          }
        }
      }
    }
    JOINT Bip001_Spine1
    {
      OFFSET 1.90638e-005 14.8539 1.10727
      CHANNELS 3 Zrotation Xrotation Yrotation
      JOINT Bip001_Spine2
      {
        OFFSET 2.28934e-005 14.7848 -1.7233
        CHANNELS 3 Zrotation Xrotation Yrotation
        JOINT Bip001_Neck
        {
          OFFSET 2.24514e-005 15.6905 -0.498826
          CHANNELS 3 Zrotation Xrotation Yrotation
          JOINT Bip001_L_Clavicle
          {
            OFFSET 6.17691 -0.000591152 0.00852867
            CHANNELS 3 Zrotation Xrotation Yrotation
            JOINT Bip001_L_UpperArm
            {
              OFFSET 11.773 -0.0611878 0.00197697
              CHANNELS 3 Zrotation Xrotation Yrotation
              JOINT Bip001_L_Forearm
              {
                OFFSET 26.4515 0.0817568 -2.19579
                CHANNELS 3 Zrotation Xrotation Yrotation
                JOINT Bip001_L_Hand
                {
                  OFFSET 32.8677 0.156744 1.67112
                  CHANNELS 3 Zrotation Xrotation Yrotation
                  JOINT Bip001_L_Finger0
                  {
                    OFFSET 6.16268 -2.25226 6.01674
                    CHANNELS 3 Zrotation Xrotation Yrotation
                    End Site
                    {
                      OFFSET 4.30499 -1.46662 0.618148
                    }
                  }
                  JOINT Bip001_L_Finger1
                  {
                    OFFSET 11.2957 -0.718374 -0.201963
                    CHANNELS 3 Zrotation Xrotation Yrotation
                    End Site
                    {
                      OFFSET 6.31952 -0.405163 -0.0802303
                    }
                  }
                }
              }
            }
          }
          JOINT Bip001_R_Clavicle
          {
            OFFSET -6.17691 -0.000574027 0.00851165
            CHANNELS 3 Zrotation Xrotation Yrotation
            JOINT Bip001_R_UpperArm
            {
              OFFSET -11.773 -0.0611516 0.00194365
              CHANNELS 3 Zrotation Xrotation Yrotation
              JOINT Bip001_R_Forearm
              {
                OFFSET -26.4514 0.0822334 -2.19736
                CHANNELS 3 Zrotation Xrotation Yrotation
                JOINT Bip001_R_Hand
                {
                  OFFSET -32.8677 0.156817 1.67144
                  CHANNELS 3 Zrotation Xrotation Yrotation
                  JOINT Bip001_R_Finger0
                  {
                    OFFSET -6.1627 -2.25224 6.0167
                    CHANNELS 3 Zrotation Xrotation Yrotation
                    End Site
                    {
                      OFFSET -4.30499 -1.46662 0.618134
                    }
                  }
                  JOINT Bip001_R_Finger1
                  {
                    OFFSET -11.2958 -0.718344 -0.201994
                    CHANNELS 3 Zrotation Xrotation Yrotation
                    End Site
                    {
                      OFFSET -6.31952 -0.405146 -0.0802475
                    }
                  }
                }
              }
            }
          }
          JOINT Bip001_Head
          {
            OFFSET 1.11782e-005 11.4912 2.09908
            CHANNELS 3 Zrotation Xrotation Yrotation
            End Site
            {
              OFFSET 2.95144e-005 21.2823 -2.83069e-005
            }
          }
        }
      }
    }
  }
}
MOTION
Frames:	6
Frame Time:	0.04
5.72142 95.6827 -8.56284 -0.18428 -1.83179 4.61173 0.0499734 0.576165 0.546309 6.71676 -6.84828 8.63396 -0.690285 13.1993 -2.47444 -4.14232 -4.09978 -2.18693 0.526418 -9.92591 -0.0663165 -6.44898 -3.87996 -0.869045 0.677232 14.2984 1.96387 -0.50594 -8.08021 -12.8795 -0.933045 -11.4217 0.2206 -0.0481377 1.15211 1.08721 -0.0481374 1.1521 1.08721 -1.50338 -0.984348 -2.99262 -28.4774 6.70017 -13.003 -50.4235 39.6788 9.02454 13.4615 3.25777 -25.6333 -5.00362 -0.406259 -0.157177 -0 0 1.59028e-015 -1.59028e-015 0 3.18055e-015 25.086 9.71256 23.0461 24.0039 -24.5512 31.944 -25.5353 -6.88003 50.8842 -49.0853 0.430141 -1.62084 5.51738e-032 1.59028e-015 -1.98785e-015 -1.59028e-015 1.59028e-015 -4.37326e-015 -0.406536 0.729741 -3.26377 
5.65685 95.6874 -8.6194 -0.239482 -2.00154 4.44681 0.0581353 0.618452 0.640527 6.80859 -6.77223 8.47476 -0.6937 13.2573 -2.17233 -4.19579 -4.09462 -2.27687 0.51004 -9.92682 -0.0688833 -6.35616 -3.81589 -0.710297 0.742931 14.263 2.04693 -0.646969 -7.97804 -13.0359 -0.890997 -11.42 0.19029 -0.0283499 1.23674 1.27601 -0.02835 1.23674 1.27601 -1.37852 -1.44815 -3.19835 -28.6733 7.0487 -12.7311 -50.5648 39.2398 8.99328 13.3879 3.37927 -25.4703 -4.97653 -0.39099 -0.166185 1.59028e-015 1.27222e-014 -3.18055e-015 3.18055e-015 1.27222e-014 -3.18055e-015 25.8852 10.2816 22.3961 21.2499 -24.3684 32.6508 -26.4125 -4.8053 48.231 -49.4561 -0.691068 -1.25327 1.59028e-015 0 2.38542e-015 1.59028e-015 -1.59028e-015 6.75868e-015 -0.505658 1.05478 -3.39338 
5.61453 95.6813 -8.66125 -0.247301 -2.30973 4.18709 0.144757 0.707125 0.569501 6.78196 -6.53602 8.69164 -0.641847 13.2952 -2.24876 -4.2449 -4.13933 -2.15999 0.513607 -9.92832 -0.037014 -6.39551 -3.73638 -0.618642 0.736077 14.3509 2.19226 -0.678268 -7.96275 -12.931 -0.89554 -11.4189 0.195944 0.143082 1.41495 1.13335 0.143082 1.41495 1.13335 -2.18841 -1.6283 -2.73331 -28.2116 7.28386 -12.3881 -50.6997 38.6724 8.942 13.586 3.93858 -25.7215 -5.27311 -0.36545 -0.478273 3.18055e-015 6.36111e-015 -0 3.18055e-015 6.36111e-015 -0 26.3808 10.3766 22.5457 22.3441 -23.9947 31.0303 -29.7485 -4.71588 50.7722 -49.7244 -0.179757 -2.11293 1.59028e-015 0 -2.98177e-015 -1.59028e-015 7.95139e-016 -2.98177e-015 -0.262106 0.992579 -3.22123 
5.58535 95.6792 -8.73289 -0.287186 -2.42788 3.95042 0.203784 0.7945 0.52378 6.80139 -6.53496 8.33441 -0.753638 13.3568 -1.70384 -4.28032 -4.1546 -2.04489 0.525742 -9.93006 -0.0538687 -6.39421 -3.83092 -0.662428 0.682767 14.3853 2.34131 -0.669098 -7.90482 -12.7612 -0.903137 -11.4177 0.199312 0.259926 1.59017 1.04098 0.259927 1.59017 1.04098 -2.8317 -1.82249 -2.36196 -28.0784 7.62174 -12.3114 -50.4567 39.2983 9.11814 13.6277 3.54177 -26.0653 -5.41773 -0.385521 -0.581728 -3.18055e-015 -6.36111e-015 3.18055e-015 -6.36111e-015 -3.18056e-015 4.77083e-015 26.7988 10.5402 22.7866 25.8335 -26.4776 31.26 -32.7216 -2.85314 53.9024 -50.9354 0.167545 -2.1978 -2.48282e-032 7.95139e-016 1.78906e-015 -1.59028e-015 7.95139e-016 7.95139e-016 0.0815103 0.758763 -3.11485 
5.54587 95.6735 -8.80747 -0.35401 -2.42739 3.8484 0.145459 0.828632 0.569311 6.9492 -6.66804 8.35801 -0.730571 13.4802 -1.71445 -4.30848 -4.18393 -2.01933 0.52333 -9.93173 -0.0373082 -6.25983 -3.94292 -0.598461 0.710931 14.3902 2.31757 -0.666782 -7.85934 -12.7552 -0.939206 -11.4111 0.203072 0.137975 1.65794 1.13252 0.137975 1.65794 1.13252 -2.44202 -1.95718 -2.52173 -28.2896 7.69166 -12.3098 -50.609 39.9913 9.44736 13.6833 3.3597 -26.0633 -5.15668 -0.371404 -0.650632 -3.18055e-015 -3.18055e-015 1.59028e-015 8.82782e-032 -3.18056e-015 1.59028e-015 28.0198 11.081 22.5583 29.4098 -30.6119 30.3496 -35.4039 -0.612729 60.9838 -52.5516 0.365852 -3.00088 -1.0483e-031 3.18055e-015 1.88845e-015 -1.65522e-032 1.59028e-015 5.96354e-016 0.0571323 0.758356 -3.15252 
5.49322 95.6652 -8.8657 -0.439403 -2.38119 3.99101 0.0952538 0.846194 0.622542 7.14306 -6.90743 8.32051 -0.773408 13.6699 -1.83414 -4.29643 -4.20513 -2.03559 0.52732 -9.93297 -0.0345645 -6.11253 -3.99626 -0.658435 0.743299 14.3511 2.17194 -0.639337 -7.84035 -12.7541 -0.989248 -11.399 0.205904 0.0319338 1.69255 1.23945 0.031934 1.69256 1.23946 -2.12399 -2.28124 -2.83739 -28.4814 7.90096 -12.1992 -50.7653 40.1588 9.53476 13.632 3.27428 -25.7831 -5.05952 -0.374844 -0.553237 0 6.36111e-015 -0 1.59028e-015 3.18056e-015 -1.59028e-015 29.7244 11.7681 21.7507 32.0334 -34.5786 27.113 -37.4347 0.922747 70.6929 -54.8294 1.128 -1.26539 -7.95139e-016 -1.59028e-015 5.06901e-015 1.71039e-031 -1.59028e-015 6.16232e-015 0.00254847 0.962387 -3.34967 
